# xmcd CD database file
#
# Track frame offsets:
#	150
#	42917
#	115807
#	166430
#	195447
#
# Disc length: 2989 seconds
#
# Revision: 0
# Processed by: cddbd v1.5.1PL2 Copyright (c) Steve Scherf et al.
# Submitted via: CDex 1.51
#
DISCID=390bab05
DTITLE=Graham Central Station - Live IN Japan '92 [CD2]
DYEAR=1992
DGENRE=Funk
TTITLE0=TODAY
TTITLE1=THE JAM
TTITLE2=RELEASE YOURSELF
TTITLE3=HAIR
TTITLE4=I WANT TO TAKE YOU HIGHER
EXTD=YEAR: 1992
EXTT0=
EXTT1=
EXTT2=
EXTT3=
EXTT4=
PLAYORDER=
